<svg viewBox="0 0 45 45" fill="none" xmlns="http://www.w3.org/2000/svg">
<g clip-path="url(#clip0_797_460)">
<path d="M43.5474 22.4944C43.5622 21.993 43.6944 14.8275 39.4538 10.163C39.2654 9.74602 38.3717 8.06555 35.4875 6.01172C34.2088 5.0199 32.8507 4.13496 31.4269 3.36586L31.4213 3.36305C31.2413 3.26672 27.7243 1.40625 23.4556 1.40625C23.1315 1.40625 22.8109 1.42523 22.4937 1.44703V1.44141C19.239 1.37039 16.006 2.20781 14.0576 3.08742C12.3294 3.86789 10.4105 5.17641 10.272 5.27766C7.87859 6.61641 3.33991 11.989 2.98062 14.8359C1.53007 16.6901 0.317884 25.0186 2.98343 30.0916C4.85234 37.1419 11.8878 40.6702 12.4475 40.9409C12.7878 41.1581 16.6219 43.5284 21.3322 43.5284C21.5298 43.5284 22.7244 43.5945 23.1505 43.5945C28.2418 43.5945 35.7863 40.0057 37.3655 37.1946C41.7045 34.0207 43.9538 25.8413 43.5474 22.4944ZM12.4862 33.0855C10.4689 29.8223 9.31929 25.5586 9.0732 24.5791C9.71163 23.6222 12.8609 18.9787 14.6553 17.5816C15.6713 17.7687 19.914 18.5477 23.9155 19.272C24.4182 20.5748 26.6239 26.3236 27.2553 28.5427C26.5592 29.3681 23.8248 32.5519 21.1325 35.0452C18.2743 35.0585 13.4129 33.4097 12.4862 33.0855ZM37.8451 10.2516C37.8366 10.568 37.7614 11.693 37.2228 12.9846C36.1534 12.4383 33.4653 11.2683 29.7809 11.0707C29.2234 10.2473 27.1252 7.37648 23.8114 5.38523C24.2649 4.49789 24.8963 3.41578 25.2655 3.08602C25.385 3.05227 25.5706 3.02133 25.8533 3.02133C27.6301 3.02133 30.6999 4.185 30.9671 4.28836C31.2505 4.43812 36.7686 7.40953 37.8451 10.2516ZM8.27796 23.9147C5.87116 23.5041 4.44031 22.7559 4.01281 22.5028C3.11773 19.2565 3.83843 15.7479 3.94952 15.2452C4.83265 13.6659 7.34702 9.64055 9.0057 8.87625C10.7248 8.52539 12.8687 8.96133 13.7419 9.17438C13.6597 10.3099 13.5015 13.4824 13.9712 16.8117C12.0685 18.3431 9.05702 22.751 8.27796 23.9147ZM22.2786 2.48203C22.8186 2.52211 23.611 2.64023 24.1538 2.80125C23.6124 3.52125 23.0576 4.58859 22.7954 5.11594C21.6915 5.29664 17.4987 6.0982 14.2095 8.23078C13.5465 8.055 11.544 7.58602 9.64765 7.74773C10.1173 6.83859 10.8191 6.16641 10.8943 6.0975C11.1551 5.91047 16.1769 2.39695 22.2786 2.47289V2.48203ZM35.7055 29.2662C34.8828 29.2324 31.7131 29.0517 28.2376 28.2354C27.5717 25.9137 25.373 20.1888 24.8703 18.8866C26.4699 16.6067 28.0937 14.3439 29.7416 12.0987C33.7409 12.318 36.5492 13.777 37.0927 14.0815C39.4095 17.8073 39.9179 21.6127 39.9875 22.2483C38.757 26.0775 36.3235 28.6559 35.7055 29.2662ZM2.56999 20.0524C2.62906 20.9426 2.77179 21.8798 3.02984 22.8066C2.79784 23.4071 2.63691 24.0326 2.55031 24.6705C2.40346 23.1343 2.41006 21.5873 2.56999 20.0524ZM9.35093 36.4767C10.4112 35.4551 11.7184 34.4609 12.2253 34.0854C13.3714 34.489 18.0781 36.0802 21.0784 36.0802C21.5895 36.7657 23.2608 38.9123 25.3098 40.5534C24.0343 41.8015 22.1921 42.3907 21.8666 42.4884C16.1523 42.6417 10.587 39.4298 9.35093 36.4767ZM24.4421 42.48C25.0904 42.1024 25.7661 41.6053 26.3251 40.976C27.237 40.8502 31.1506 40.1766 34.6873 37.5785C34.9208 37.6038 35.3054 37.6348 35.735 37.6228C33.613 39.702 28.4351 42.0244 24.4421 42.48ZM35.2871 36.5906C36.5576 33.2803 36.5035 30.7842 36.4409 29.9869C37.1384 29.3034 39.5319 26.7532 40.8601 22.8762C41.5759 22.9957 42.0413 23.1778 42.2621 23.2798C42.3387 23.561 42.4667 24.2107 42.3943 25.1958C41.8529 28.7416 39.984 34.0552 36.7102 36.4043C36.3812 36.5723 35.8018 36.6089 35.2871 36.5906Z" fill="white"/>
<path d="M43.5474 22.4944C43.5622 21.993 43.6944 14.8275 39.4538 10.163C39.2654 9.74602 38.3717 8.06555 35.4875 6.01172C34.2088 5.0199 32.8507 4.13496 31.4269 3.36586L31.4213 3.36305C31.2413 3.26672 27.7243 1.40625 23.4556 1.40625C23.1315 1.40625 22.8109 1.42523 22.4937 1.44703V1.44141C19.239 1.37039 16.006 2.20781 14.0576 3.08742C12.3294 3.86789 10.4105 5.17641 10.272 5.27766C7.87859 6.61641 3.33991 11.989 2.98062 14.8359C1.53007 16.6901 0.317884 25.0186 2.98343 30.0916C4.85234 37.1419 11.8878 40.6702 12.4475 40.9409C12.7878 41.1581 16.6219 43.5284 21.3322 43.5284C21.5298 43.5284 22.7244 43.5945 23.1505 43.5945C28.2418 43.5945 35.7863 40.0057 37.3655 37.1946C41.7045 34.0207 43.9538 25.8413 43.5474 22.4944ZM12.4862 33.0855C10.4689 29.8223 9.31929 25.5586 9.0732 24.5791C9.71163 23.6222 12.8609 18.9788 14.6553 17.5816C15.6713 17.7687 19.914 18.5477 23.9155 19.272C24.4182 20.5748 26.6239 26.3236 27.2553 28.5427C26.5592 29.3681 23.8248 32.5519 21.1325 35.0452C18.2743 35.0585 13.4129 33.4097 12.4862 33.0855ZM37.8451 10.2516C37.8366 10.568 37.7614 11.693 37.2228 12.9846C36.1534 12.4383 33.4653 11.2683 29.7809 11.0707C29.2234 10.2473 27.1252 7.37648 23.8114 5.38523C24.2649 4.49789 24.8963 3.41578 25.2655 3.08602C25.385 3.05227 25.5706 3.02133 25.8533 3.02133C27.6301 3.02133 30.6999 4.185 30.9671 4.28836C31.2505 4.43812 36.7686 7.40953 37.8451 10.2516ZM8.27796 23.9147C5.87116 23.5041 4.44031 22.7559 4.01281 22.5028C3.11773 19.2565 3.83843 15.7479 3.94952 15.2452C4.83265 13.6659 7.34702 9.64055 9.0057 8.87625C10.7248 8.52539 12.8687 8.96133 13.7419 9.17438C13.6597 10.3099 13.5015 13.4824 13.9712 16.8117C12.0685 18.3431 9.05702 22.751 8.27796 23.9147ZM22.2786 2.48203C22.8186 2.52211 23.611 2.64023 24.1538 2.80125C23.6124 3.52125 23.0576 4.58859 22.7954 5.11594C21.6915 5.29664 17.4987 6.0982 14.2095 8.23078C13.5465 8.055 11.544 7.58602 9.64765 7.74773C10.1173 6.83859 10.8191 6.16641 10.8943 6.0975C11.1551 5.91047 16.1769 2.39695 22.2786 2.47289V2.48203ZM35.7055 29.2662C34.8828 29.2324 31.7131 29.0517 28.2376 28.2354C27.5717 25.9137 25.373 20.1888 24.8703 18.8866C26.4699 16.6067 28.0937 14.3439 29.7416 12.0987C33.7409 12.318 36.5492 13.777 37.0927 14.0815C39.4095 17.8073 39.9179 21.6127 39.9875 22.2483C38.757 26.0775 36.3235 28.6559 35.7055 29.2662ZM2.56999 20.0524C2.62906 20.9426 2.77179 21.8798 3.02984 22.8066C2.79784 23.4071 2.63691 24.0326 2.55031 24.6705C2.40346 23.1343 2.41006 21.5873 2.56999 20.0524ZM9.35093 36.4767C10.4112 35.4551 11.7184 34.4609 12.2253 34.0854C13.3714 34.489 18.0781 36.0802 21.0784 36.0802C21.5895 36.7657 23.2608 38.9123 25.3098 40.5534C24.0343 41.8015 22.1921 42.3907 21.8666 42.4884C16.1523 42.6417 10.587 39.4298 9.35093 36.4767ZM24.4421 42.48C25.0904 42.1024 25.7661 41.6053 26.3251 40.976C27.237 40.8502 31.1506 40.1766 34.6873 37.5785C34.9208 37.6038 35.3054 37.6348 35.735 37.6228C33.613 39.702 28.4351 42.0244 24.4421 42.48ZM35.2871 36.5906C36.5576 33.2803 36.5035 30.7842 36.4409 29.9869C37.1384 29.3034 39.5319 26.7532 40.8601 22.8762C41.5759 22.9957 42.0413 23.1778 42.2621 23.2798C42.3387 23.561 42.4667 24.2107 42.3943 25.1958C41.8529 28.7416 39.984 34.0552 36.7102 36.4043C36.3812 36.5723 35.8018 36.6089 35.2871 36.5906Z" />
</g>
<defs>
<clipPath id="clip0_797_460">
<rect width="45" height="45" fill="white"/>
</clipPath>
</defs>
</svg>
