<svg width="14" height="16" viewBox="0 0 14 16" fill="none" xmlns="http://www.w3.org/2000/svg">
<path d="M0.402453 5.0692L3.36571 3.19087L3.26213 4.17188L12.9559 2.99974L9.68177 6.10439L4.85438 7.87258L7.24154 5.23816L3.29206 5.84347L3.24924 6.66378L0.402453 5.0692Z" fill="#E7FF0C"/>
<path d="M13.5975 9.98515L10.6343 11.8635L10.7379 10.8825L1.04408 12.0546L4.31823 8.94997L9.14562 7.18178L6.75846 9.8162L10.7079 9.21088L10.7508 8.39057L13.5975 9.98515Z" fill="#E7FF0C"/>
<path d="M0.402453 5.0692L3.36571 3.19087L3.26213 4.17188L12.9559 2.99974L9.68177 6.10439L4.85438 7.87258L7.24154 5.23816L3.29206 5.84347L3.24924 6.66378L0.402453 5.0692Z" fill="#E7FF0C"/>
<path d="M13.5975 9.98515L10.6343 11.8635L10.7379 10.8825L1.04408 12.0546L4.31823 8.94997L9.14562 7.18178L6.75846 9.8162L10.7079 9.21088L10.7508 8.39057L13.5975 9.98515Z" fill="#E7FF0C"/>
</svg>
