<svg width="119" height="36" viewBox="0 0 119 36" fill="none" xmlns="http://www.w3.org/2000/svg">
<path d="M15.0078 9.39062C15.0078 10.9141 14.8646 12.2422 14.5781 13.375C14.3047 14.5078 13.862 15.4453 13.25 16.1875C12 17.6849 9.99479 18.4336 7.23438 18.4336H3.875V29H0.398438V0.992188C0.736979 0.966146 1.08203 0.940104 1.43359 0.914062C1.78516 0.888021 2.14974 0.861979 2.52734 0.835938C3.16536 0.783854 3.88802 0.751302 4.69531 0.738281C5.51562 0.72526 6.33594 0.71875 7.15625 0.71875C8.67969 0.71875 9.94922 0.940104 10.9648 1.38281C11.9805 1.82552 12.7878 2.4375 13.3867 3.21875C13.9987 4 14.4219 4.91797 14.6562 5.97266C14.8906 7.02734 15.0078 8.16667 15.0078 9.39062ZM11.4336 9.68359C11.4336 7.67839 11.1602 6.16797 10.6133 5.15234C10.0664 4.1237 9.07682 3.60938 7.64453 3.60938C6.52474 3.60938 5.61328 3.64844 4.91016 3.72656C4.51953 3.77865 4.17448 3.81771 3.875 3.84375V15.5234H7.64453C8.20443 15.5234 8.71224 15.4258 9.16797 15.2305C9.63672 15.0221 10.0404 14.6901 10.3789 14.2344C10.7174 13.7786 10.9779 13.1797 11.1602 12.4375C11.3424 11.6953 11.4336 10.7773 11.4336 9.68359ZM24.3644 25.9922V28.8047C24.2211 28.8307 24.0584 28.8633 23.8761 28.9023C23.7068 28.9284 23.531 28.9609 23.3487 29C22.9581 29.0781 22.4959 29.1172 21.962 29.1172C20.9985 29.1172 20.1912 28.7591 19.5402 28.043C18.8891 27.3138 18.5636 26.1419 18.5636 24.5273V0.992188H21.962V24.3125C21.962 25.0156 22.0467 25.5104 22.2159 25.7969C22.3982 26.0703 22.7563 26.207 23.2902 26.207C23.4724 26.207 23.6808 26.1745 23.9152 26.1094C24.0974 26.0573 24.2472 26.0182 24.3644 25.9922ZM41.7873 26.207V29H40.5764C40.0426 29 39.4892 28.8568 38.9163 28.5703C38.3433 28.2839 37.8941 27.776 37.5686 27.0469C37.0738 27.763 36.4097 28.3164 35.5764 28.707C34.7561 29.0846 33.6623 29.2734 32.2952 29.2734C31.579 29.2734 30.8564 29.2018 30.1272 29.0586C29.411 28.9154 28.773 28.6224 28.2131 28.1797C27.6532 27.737 27.1975 27.1315 26.8459 26.3633C26.5074 25.582 26.3381 24.5794 26.3381 23.3555C26.3381 21.194 26.9631 19.5404 28.2131 18.3945C29.4761 17.2487 31.2274 16.6758 33.467 16.6758H36.6116V14.5273C36.6116 13.668 36.3642 12.9648 35.8694 12.418C35.3876 11.8711 34.6389 11.5977 33.6233 11.5977C32.4774 11.5977 31.4748 11.6693 30.6155 11.8125C29.7691 11.9427 28.8381 12.151 27.8225 12.4375V9.52734C28.5647 9.30599 29.398 9.11719 30.3225 8.96094C31.26 8.80469 32.2235 8.72656 33.2131 8.72656C35.7782 8.72656 37.5621 9.25391 38.5647 10.3086C39.0855 10.8555 39.4566 11.5456 39.678 12.3789C39.8993 13.1992 40.01 14.1823 40.01 15.3281V24.918C40.01 25.3216 40.1402 25.6406 40.4006 25.875C40.6741 26.0964 41.1363 26.207 41.7873 26.207ZM33.0959 26.4023C34.2939 26.4023 35.1793 26.0898 35.7522 25.4648C36.3251 24.8268 36.6116 24.2083 36.6116 23.6094V19.3906H33.2522C32.3277 19.3906 31.5204 19.7031 30.8303 20.3281C30.1532 20.9531 29.8147 21.8841 29.8147 23.1211C29.8147 24.3711 30.0946 25.2305 30.6545 25.6992C31.2144 26.168 32.0282 26.4023 33.0959 26.4023ZM54.7962 9H58.2728L52.472 30.7578C52.1986 31.8125 51.8796 32.7305 51.515 33.5117C51.1504 34.306 50.6556 34.918 50.0306 35.3477C49.4186 35.7773 48.5788 35.9922 47.5111 35.9922C47.0814 35.9922 46.6517 35.9661 46.222 35.9141C45.8054 35.862 45.4733 35.8099 45.2259 35.7578V32.8477C45.877 32.9518 46.5736 33.0039 47.3158 33.0039C48.0449 33.0039 48.5788 32.4049 48.9173 31.207L49.5423 29H48.7416L42.5502 9H46.222L50.8705 25.5234L54.7962 9ZM74.3677 17.2031V20.1914H64.0552C64.0812 21.5065 64.1854 22.5677 64.3677 23.375C64.5499 24.1823 64.7843 24.8138 65.0708 25.2695C65.3703 25.7122 65.7153 26.0117 66.1059 26.168C66.4966 26.3242 66.9458 26.4023 67.4536 26.4023C68.5734 26.4023 69.589 26.3307 70.5005 26.1875C71.4249 26.0312 72.1997 25.888 72.8247 25.7578V28.6484C72.1736 28.8307 71.3598 28.9805 70.3833 29.0977C69.4197 29.2148 68.5799 29.2734 67.8638 29.2734C66.7179 29.2734 65.6958 29.1562 64.7973 28.9219C63.8989 28.6745 63.1437 28.1927 62.5317 27.4766C61.9197 26.7604 61.451 25.7318 61.1255 24.3906C60.813 23.0365 60.6567 21.2396 60.6567 19C60.6567 15.3672 61.2687 12.724 62.4927 11.0703C63.1046 10.25 63.8664 9.65755 64.7778 9.29297C65.6893 8.91536 66.744 8.72656 67.9419 8.72656C70.2335 8.72656 71.8742 9.48177 72.8638 10.9922C73.8664 12.4896 74.3677 14.5599 74.3677 17.2031ZM67.8638 11.5586C67.2127 11.5586 66.6658 11.6497 66.2231 11.832C65.7804 12.0143 65.4093 12.3333 65.1098 12.7891C64.5239 13.6745 64.1854 15.237 64.0942 17.4766H71.0473V16.4023C71.0473 14.8789 70.813 13.694 70.3442 12.8477C69.8885 11.9883 69.0617 11.5586 67.8638 11.5586Z" fill="white"/>
<path d="M72.4081 7.72932L82.772 1.15994L82.4097 4.59097L116.313 0.491458L104.862 11.3498L87.9786 17.534L96.3275 8.32023L82.5144 10.4373L82.3646 13.3063L72.4081 7.72932Z" fill="#E7FF0C"/>
<path d="M118.556 24.9226L108.192 31.492L108.555 28.061L74.651 32.1605L86.1022 21.3021L102.986 15.118L94.6368 24.3317L108.45 22.2147L108.6 19.3456L118.556 24.9226Z" fill="#E7FF0C"/>
<path d="M72.4081 7.72932L82.772 1.15994L82.4097 4.59097L116.313 0.491458L104.862 11.3498L87.9786 17.534L96.3275 8.32023L82.5144 10.4373L82.3646 13.3063L72.4081 7.72932Z" fill="#E7FF0C"/>
<path d="M118.556 24.9226L108.192 31.492L108.555 28.061L74.651 32.1605L86.1022 21.3021L102.986 15.118L94.6368 24.3317L108.45 22.2147L108.6 19.3456L118.556 24.9226Z" fill="#E7FF0C"/>
</svg>
