<?xml version="1.0" encoding="UTF-8"?>
<svg id="Capa_2" data-name="Capa 2" xmlns="http://www.w3.org/2000/svg" viewBox="0 0 24.79 24.89">
  <defs>
    <style>
      .cls-1 {
        fill: none;
        stroke: #fff;
        stroke-miterlimit: 10;
        stroke-width: .5px;
      }

      .cls-2 {
        fill: #fff;
        stroke-width: 0px;
      }
    </style>
  </defs>
  <g id="Capa_1-2" data-name="Capa 1">
    <polygon class="cls-2" points="14.33 5.98 12.65 8.88 14.33 11.79 17.69 11.79 19.36 8.88 17.69 5.98 14.33 5.98"/>
    <path class="cls-1" d="M14.33,5.98h3.35l1.68-2.91-1.42-2.47c-.62-.14-1.27-.23-1.93-.23s-1.31.08-1.93.23l-1.42,2.46,1.68,2.91Z"/>
    <path class="cls-1" d="M17.69,5.98l1.68,2.91h3.35l1.43-2.47c-.38-1.26-1.06-2.4-1.94-3.34h-2.84l-1.68,2.91Z"/>
    <path class="cls-1" d="M22.72,8.88h-3.35l-1.68,2.91,1.68,2.91h2.84c.88-.94,1.55-2.07,1.94-3.34l-1.43-2.47Z"/>
    <path class="cls-1" d="M17.69,11.79h-3.35l-1.68,2.91,1.42,2.46c.62.14,1.27.23,1.93.23s1.31-.08,1.93-.23l1.42-2.47-1.68-2.91Z"/>
    <path class="cls-1" d="M14.33,11.79l-1.68-2.91h-3.35l-1.43,2.47c.38,1.26,1.06,2.4,1.94,3.34h2.84l1.68-2.91Z"/>
    <path class="cls-1" d="M12.65,8.88l1.68-2.91-1.68-2.91h-2.84c-.88.94-1.56,2.07-1.94,3.34l1.43,2.47h3.35Z"/>
    <rect class="cls-2" x="-1.55" y="19.67" width="12.07" height="1.49" rx=".74" ry=".74" transform="translate(-13.12 9.15) rotate(-45)"/>
    <path class="cls-2" d="M13.89,16.64l-.32.32c.21.07.41.15.63.2l-.3-.52Z"/>
    <circle class="cls-2" cx="8.86" cy="22.72" r=".72"/>
    <path class="cls-2" d="M15.91,0C11,0,7.03,3.98,7.03,8.88c0,.7.09,1.38.24,2.03L.75,17.43c-.29.29-.29.76,0,1.05s.76.29,1.05,0l5.99-5.99c1.02,2.29,2.98,4.08,5.4,4.85l-3.26,3.26c-.29.29-.29.76,0,1.05s.76.29,1.05,0l3.94-3.94c.32.04.65.06.99.06,4.91,0,8.88-3.98,8.88-8.88S20.82,0,15.91,0ZM21.96,14.69h-2.6l-1.33,2.31c-.68.18-1.39.28-2.12.28-.65,0-1.28-.08-1.89-.22l-1.37-2.36h-2.8c-.71-.74-1.29-1.61-1.7-2.57l.08-.08c-.09-.23-.18-.45-.25-.69v-.2l1.31-2.27-1.42-2.46c.39-1.27,1.08-2.42,1.98-3.35h2.8l1.37-2.36c.61-.14,1.24-.22,1.89-.22.73,0,1.44.09,2.12.27l1.34,2.32h2.6c.95.99,1.67,2.22,2.04,3.59l-1.28,2.22,1.28,2.22c-.37,1.37-1.08,2.6-2.04,3.59Z"/>
  </g>
</svg>